<?xml version="1.0" encoding="UTF-8" standalone="no"?>
<!-- Created with Inkscape (http://www.inkscape.org/) -->

<svg
   xmlns:dc="http://purl.org/dc/elements/1.1/"
   xmlns:cc="http://creativecommons.org/ns#"
   xmlns:rdf="http://www.w3.org/1999/02/22-rdf-syntax-ns#"
   xmlns:svg="http://www.w3.org/2000/svg"
   xmlns="http://www.w3.org/2000/svg"
   xmlns:sodipodi="http://sodipodi.sourceforge.net/DTD/sodipodi-0.dtd"
   xmlns:inkscape="http://www.inkscape.org/namespaces/inkscape"
   version="1.1"
   width="24"
   height="24"
   id="svg4460"
   inkscape:version="0.48.4 r9939"
   sodipodi:docname="arrowwms.svg">
  <sodipodi:namedview
     pagecolor="#ffffff"
     bordercolor="#666666"
     borderopacity="1"
     objecttolerance="10"
     gridtolerance="10"
     guidetolerance="10"
     inkscape:pageopacity="0"
     inkscape:pageshadow="2"
     inkscape:window-width="1280"
     inkscape:window-height="962"
     id="namedview11"
     showgrid="false"
     inkscape:zoom="27.812866"
     inkscape:cx="16.264171"
     inkscape:cy="9.1056571"
     inkscape:window-x="-8"
     inkscape:window-y="-8"
     inkscape:window-maximized="1"
     inkscape:current-layer="svg4460" />
  <defs
     id="defs4462" />
  <metadata
     id="metadata4465">
    <rdf:RDF>
      <cc:Work
         rdf:about="">
        <dc:format>image/svg+xml</dc:format>
        <dc:type
           rdf:resource="http://purl.org/dc/dcmitype/StillImage" />
        <dc:title />
      </cc:Work>
    </rdf:RDF>
  </metadata>
  <g
     id="g2986">
    <g
       transform="scale(0.95617658,1.0458319)"
       style="font-size:42.19079208px;font-style:normal;font-weight:normal;line-height:125%;letter-spacing:0px;word-spacing:0px;fill:#000000;fill-opacity:1;stroke:none;font-family:Sans"
       id="text2982">
      <path
         id="path2996"
         style="font-size:10.54769802px;font-weight:bold;-inkscape-font-specification:Sans Bold"
         d="m 19.073735,20.479095 1.48327,-0.144207 c 0.08927,0.497859 0.270386,0.863526 0.543351,1.097001 0.27296,0.233479 0.641202,0.350218 1.104727,0.350217 0.490986,1e-6 0.860944,-0.103862 1.109877,-0.31159 0.248924,-0.207724 0.373388,-0.450644 0.373393,-0.728759 -5e-6,-0.178539 -0.05237,-0.330472 -0.157083,-0.455797 -0.104726,-0.125319 -0.287559,-0.234333 -0.5485,-0.32704 -0.178546,-0.0618 -0.585415,-0.171672 -1.220608,-0.329616 -0.817174,-0.202572 -1.390567,-0.451501 -1.720181,-0.746785 -0.463523,-0.415448 -0.695284,-0.921888 -0.695283,-1.519322 -1e-6,-0.384545 0.109013,-0.744203 0.32704,-1.078976 0.218026,-0.334758 0.532191,-0.589695 0.942495,-0.764811 0.4103,-0.1751 0.905581,-0.262654 1.485845,-0.262662 0.94764,8e-6 1.660948,0.207734 2.139926,0.623179 0.478967,0.41546 0.73047,0.969969 0.754511,1.663529 l -1.524472,0.06695 c -0.06524,-0.387979 -0.205156,-0.66695 -0.419745,-0.836914 -0.214598,-0.169952 -0.536488,-0.254931 -0.965671,-0.254937 -0.442924,6e-6 -0.789706,0.09099 -1.040349,0.272962 -0.161376,0.116745 -0.242063,0.272969 -0.242061,0.468673 -2e-6,0.178547 0.07553,0.331337 0.22661,0.458371 0.192274,0.16138 0.659228,0.329621 1.400867,0.504724 0.74163,0.175113 1.29013,0.35623 1.645502,0.543351 0.355361,0.187129 0.633474,0.442924 0.83434,0.767386 0.200853,0.324468 0.301282,0.725328 0.301289,1.202582 -7e-6,0.432622 -0.120179,0.837774 -0.360517,1.215457 -0.240351,0.377685 -0.580267,0.658373 -1.019748,0.842065 -0.439492,0.183692 -0.987134,0.275538 -1.642928,0.275538 -0.954514,0 -1.687565,-0.220602 -2.199154,-0.661806 -0.511591,-0.441204 -0.817172,-1.084125 -0.916743,-1.928766 z m -8.430948,2.456665 0,-7.550256 2.281557,0 1.369965,5.150243 1.354514,-5.150243 2.286708,0 0,7.550256 -1.416317,0 0,-5.94338 -1.498721,5.94338 -1.467819,0 -1.493571,-5.94338 0,5.94338 z m -8.8584185,0 -1.80258514,-7.550256 1.56052364,0 1.1382038,5.186295 1.3802652,-5.186295 1.8128856,0 1.3236125,5.273849 1.1588047,-5.273849 1.5347724,0 -1.8334865,7.550256 -1.6171764,0 -1.503871,-5.644666 -1.4987208,5.644666 z M 7.09433,1.0577134 C 6.9298894,1.1594934 6.8299022,1.3280638 6.8263005,1.5095891 L 6.6504178,10.136734 c -0.00931,0.492755 0.633639,0.753733 1.0271564,0.41693 L 9.6993517,8.8253144 12.382779,14.346174 c 0.180447,0.404195 0.775833,0.470844 1.057612,0.118393 1.083632,-1.135565 1.485453,-1.462963 3.255367,-1.718366 0.47474,-0.04688 0.709301,-0.551625 0.416662,-0.896597 L 13.223348,6.9651505 15.872649,6.2278417 C 16.388438,6.0846632 16.462709,5.4450966 15.9913,5.2060908 L 7.7314891,1.0317798 C 7.5306686,0.93018513 7.284482,0.94020519 7.09433,1.0577134 z M 8.0272597,2.4571166 14.137805,5.545057 12.020764,6.1333273 C 11.611701,6.2472525 11.454348,6.700552 11.71669,7.0092942 l 3.76144,4.7360998 c -1.322608,0.280158 -1.516986,0.486232 -2.37819,1.255342 L 10.495767,7.6537653 C 10.334489,7.291677 9.8264344,7.189617 9.5139898,7.4565438 L 7.8969697,8.8393204 z" />
    </g>
  </g>
</svg>
