<?xml version="1.0" encoding="UTF-8" standalone="no"?>
<!-- Created with Inkscape (http://www.inkscape.org/) -->

<svg
   xmlns:dc="http://purl.org/dc/elements/1.1/"
   xmlns:cc="http://creativecommons.org/ns#"
   xmlns:rdf="http://www.w3.org/1999/02/22-rdf-syntax-ns#"
   xmlns:svg="http://www.w3.org/2000/svg"
   xmlns="http://www.w3.org/2000/svg"
   xmlns:sodipodi="http://sodipodi.sourceforge.net/DTD/sodipodi-0.dtd"
   xmlns:inkscape="http://www.inkscape.org/namespaces/inkscape"
   version="1.1"
   width="24"
   height="24"
   id="svg4460"
   inkscape:version="0.48.4 r9939"
   sodipodi:docname="arrowwfs.svg">
  <sodipodi:namedview
     pagecolor="#ffffff"
     bordercolor="#666666"
     borderopacity="1"
     objecttolerance="10"
     gridtolerance="10"
     guidetolerance="10"
     inkscape:pageopacity="0"
     inkscape:pageshadow="2"
     inkscape:window-width="1280"
     inkscape:window-height="962"
     id="namedview11"
     showgrid="false"
     inkscape:zoom="39.333332"
     inkscape:cx="15.059066"
     inkscape:cy="11.434578"
     inkscape:window-x="-8"
     inkscape:window-y="-8"
     inkscape:window-maximized="1"
     inkscape:current-layer="g2986" />
  <defs
     id="defs4462" />
  <metadata
     id="metadata4465">
    <rdf:RDF>
      <cc:Work
         rdf:about="">
        <dc:format>image/svg+xml</dc:format>
        <dc:type
           rdf:resource="http://purl.org/dc/dcmitype/StillImage" />
        <dc:title />
      </cc:Work>
    </rdf:RDF>
  </metadata>
  <g
     id="g2986">
    <g
       id="g3025">
      <g
         transform="scale(1.0130887,0.9870804)"
         style="font-size:43.86746216px;font-style:normal;font-weight:normal;line-height:125%;letter-spacing:0px;word-spacing:0px;fill:#000000;fill-opacity:1;stroke:none;font-family:Sans"
         id="text3021">
        <path
           id="path3035"
           style="font-size:10.96686554px;font-weight:bold;-inkscape-font-specification:Sans Bold"
           d="m 17.336096,21.785641 1.542216,-0.149938 c 0.09282,0.517644 0.28113,0.897843 0.564943,1.140597 0.283808,0.242758 0.666684,0.364136 1.148629,0.364134 0.510498,2e-6 0.895159,-0.107989 1.153985,-0.323972 0.258815,-0.21598 0.388226,-0.468553 0.388231,-0.75772 -5e-6,-0.185635 -0.05445,-0.343605 -0.163325,-0.47391 -0.108888,-0.1303 -0.298987,-0.243646 -0.570298,-0.340037 -0.185642,-0.06426 -0.60868,-0.178494 -1.269115,-0.342715 -0.849649,-0.210623 -1.445829,-0.469444 -1.788542,-0.776463 -0.481943,-0.431958 -0.722914,-0.958524 -0.722913,-1.5797 -1e-6,-0.399827 0.113345,-0.773778 0.340037,-1.121854 0.22669,-0.348062 0.553339,-0.61313 0.979949,-0.795205 0.426606,-0.182059 0.94157,-0.273093 1.544893,-0.273101 0.9853,8e-6 1.726955,0.21599 2.224967,0.647945 0.498001,0.43197 0.759499,1.008515 0.784495,1.729637 l -1.585055,0.06961 c -0.06783,-0.403397 -0.213308,-0.693455 -0.436425,-0.870173 -0.223126,-0.176706 -0.557808,-0.265062 -1.004047,-0.265069 -0.460525,7e-6 -0.821089,0.09461 -1.081692,0.283811 -0.16779,0.121384 -0.251684,0.283817 -0.251681,0.487297 -3e-6,0.185643 0.07854,0.344505 0.235616,0.476588 0.199914,0.167792 0.685426,0.342719 1.456537,0.524781 0.771103,0.182072 1.341401,0.370386 1.710895,0.564944 0.369483,0.194566 0.658648,0.460526 0.867496,0.797882 0.208835,0.337363 0.313256,0.754153 0.313263,1.250373 -7e-6,0.449814 -0.124955,0.871067 -0.374844,1.26376 -0.249903,0.392694 -0.603327,0.684537 -1.060274,0.875528 -0.456957,0.190992 -1.026362,0.286488 -1.708217,0.286488 -0.992447,0 -1.754629,-0.229369 -2.286549,-0.688106 -0.531922,-0.458737 -0.849647,-1.127208 -0.953175,-2.005416 z m -6.292025,2.554294 0,-7.850305 5.38169,0 0,1.328019 -3.796635,0 0,1.858155 3.277208,0 0,1.328019 -3.277208,0 0,3.336112 z m -9.2425827,0 -1.87422022,-7.850305 1.62253922,0 1.1834361,5.392399 1.4351172,-5.392399 1.88493,0 1.3762131,5.483433 1.2048559,-5.483433 1.5957644,0 -1.9063495,7.850305 -1.6814432,0 -1.5636352,-5.868986 -1.5582802,5.868986 z M 6.6111577,1.1147217 C 6.4545126,1.2229966 6.3592657,1.4023238 6.3558347,1.5954327 L 6.1882899,10.773096 c -0.00887,0.524199 0.6036009,0.80183 0.9784633,0.443533 L 9.0926874,9.3779913 11.648905,15.251151 c 0.171892,0.429986 0.739055,0.500887 1.007474,0.125947 1.032263,-1.208029 1.415034,-1.556318 3.101046,-1.828018 0.452235,-0.04988 0.675676,-0.586827 0.396909,-0.953812 L 12.449626,7.3991259 14.973336,6.6147676 C 15.464673,6.4624525 15.535423,5.7820737 15.086362,5.5278164 L 7.2181123,1.087133 C 7.0268119,0.97905565 6.7922958,0.98971503 6.6111577,1.1147217 z M 7.4998619,2.603424 13.320732,5.8884128 11.304052,6.514222 c -0.389671,0.121195 -0.539565,0.6034208 -0.28966,0.9318644 l 3.583125,5.0383216 c -1.259907,0.298036 -1.44507,0.517259 -2.265449,1.335448 L 9.8513481,8.1316831 C 9.6977151,7.7464889 9.2137458,7.6379158 8.9161128,7.9218763 l -1.540365,1.4710144 z" />
      </g>
    </g>
  </g>
</svg>
