<?xml version="1.0" encoding="UTF-8" standalone="no"?>
<!-- Created with Inkscape (http://www.inkscape.org/) -->

<svg
   xmlns:dc="http://purl.org/dc/elements/1.1/"
   xmlns:cc="http://creativecommons.org/ns#"
   xmlns:rdf="http://www.w3.org/1999/02/22-rdf-syntax-ns#"
   xmlns:svg="http://www.w3.org/2000/svg"
   xmlns="http://www.w3.org/2000/svg"
   xmlns:sodipodi="http://sodipodi.sourceforge.net/DTD/sodipodi-0.dtd"
   xmlns:inkscape="http://www.inkscape.org/namespaces/inkscape"
   version="1.1"
   width="24"
   height="24"
   id="svg4460"
   inkscape:version="0.48.4 r9939"
   sodipodi:docname="drawlabel.svg">
  <sodipodi:namedview
     pagecolor="#ffffff"
     bordercolor="#666666"
     borderopacity="1"
     objecttolerance="10"
     gridtolerance="10"
     guidetolerance="10"
     inkscape:pageopacity="0"
     inkscape:pageshadow="2"
     inkscape:window-width="1280"
     inkscape:window-height="972"
     id="namedview11"
     showgrid="true"
     inkscape:zoom="22.627417"
     inkscape:cx="11.024654"
     inkscape:cy="16.390606"
     inkscape:window-x="1272"
     inkscape:window-y="-8"
     inkscape:window-maximized="1"
     inkscape:current-layer="svg4460"
     inkscape:snap-global="false">
    <inkscape:grid
       type="xygrid"
       id="grid3017" />
  </sodipodi:namedview>
  <defs
     id="defs4462" />
  <metadata
     id="metadata4465">
    <rdf:RDF>
      <cc:Work
         rdf:about="">
        <dc:format>image/svg+xml</dc:format>
        <dc:type
           rdf:resource="http://purl.org/dc/dcmitype/StillImage" />
        <dc:title></dc:title>
      </cc:Work>
    </rdf:RDF>
  </metadata>
  <path
     id="path3028"
     style="font-size:24.42100334px;font-style:normal;font-weight:normal;line-height:125%;letter-spacing:0px;word-spacing:0px;fill:#000000;fill-opacity:1;stroke:none;font-family:Sans"
     d="m 8.375,5.3122504 c 0.2686899,0.9515964 0.6967902,2.176914 1.2500002,3.65625 L 11.4375,13.81225 l -5.90625,0 L 7.4375,8.6560004 C 7.8405397,7.5445026 8.1537117,6.4397693 8.375,5.3122504 z M 7.1875,3.4685004 0.53125001,21.031 l 2.43749999,0 1.90625,-5.3125 7.25,0 2.03125,5.3125 2.625,0 -7.0937499,-17.5624996 -2.5000001,0 z m 11.625,-2.496e-4 0,0.6615065 1.53125,0 A 0.5335148,0.56467767 0 0 1 20.875,4.6920379 l 0,15.1154251 a 0.5335148,0.56467767 0 0 1 -0.53125,0.56228 l -1.53125,0 0,0.661507 4.875,0 0,-0.661507 -1.53125,0 A 0.5335148,0.56467767 0 0 1 21.625,19.807463 l 0,-15.1154251 a 0.5335148,0.56467767 0 0 1 0.53125,-0.5622806 l 1.53125,0 0,-0.6615065 -4.875,0 z" />
</svg>
