<?xml version="1.0" encoding="UTF-8" standalone="no"?>
<svg
   xmlns:dc="http://purl.org/dc/elements/1.1/"
   xmlns:cc="http://creativecommons.org/ns#"
   xmlns:rdf="http://www.w3.org/1999/02/22-rdf-syntax-ns#"
   xmlns:svg="http://www.w3.org/2000/svg"
   xmlns="http://www.w3.org/2000/svg"
   id="svg4460"
   height="24"
   width="24"
   version="1.1">
  <defs
     id="defs4462" />
  <metadata
     id="metadata4465">
    <rdf:RDF>
      <cc:Work
         rdf:about="">
        <dc:format>image/svg+xml</dc:format>
        <dc:type
           rdf:resource="http://purl.org/dc/dcmitype/StillImage" />
        <dc:title></dc:title>
      </cc:Work>
    </rdf:RDF>
  </metadata>
  <g
     id="g836">
    <path
       d="m 15.232422,8.6640625 c -2.18e-4,9.26e-5 -0.07085,0.033064 -0.08203,0.039063 -0.02237,0.011997 -0.02971,0.017712 -0.04297,0.025391 -0.02652,0.015357 -0.06411,0.037078 -0.142578,0.083984 -0.156941,0.093812 -0.467857,0.2804781 -1.09375,0.6601562 -1.251788,0.7593568 -3.764368,2.2890188 -8.8125002,5.3730468 a 0.95927592,0.95927592 0 0 0 0.328125,1.763672 l 12.6230472,2.291016 0.34375,-1.886719 -10.1445316,-1.841797 c 2.9364046,-1.792177 5.7127186,-3.486231 6.6562496,-4.058594 0.624156,-0.378624 0.934352,-0.564853 1.083985,-0.654297 0.06783,-0.04054 0.09558,-0.05641 0.109375,-0.06445 -0.0091,0.0049 -0.07834,0.0372 -0.07813,0.03711 1.09e-4,-4.7e-5 -0.212891,0.0625 -0.212891,0.0625 0,0 -0.160156,-0.947266 -0.160156,-0.947266 0,0 -0.374891,-0.8828588 -0.375,-0.8828125 z M 8.033203,2.5595702 c -1.6664762,0 -3.0332031,1.3667269 -3.0332031,3.0332031 0,0.7862233 0.312217,1.4998176 0.8085938,2.0410156 L 3.3203124,12.655274 c -0.090114,-0.0082 -0.1774047,-0.02734 -0.2695313,-0.02734 -1.666476,0 -3.03320304,1.366727 -3.03320304,3.033203 0,1.666476 1.36672704,3.033203 3.03320304,3.033203 1.6664764,0 3.0332032,-1.366727 3.0332032,-3.033203 0,-0.855006 -0.3640191,-1.62659 -0.9394532,-2.179688 L 7.5703124,8.5810546 c 0.1518976,0.023757 0.3046764,0.046875 0.4628906,0.046875 1.1023046,0 2.063907,-0.6044384 2.595703,-1.4921876 l 3.958985,1.0839844 c 0.147898,1.5283344 1.432265,2.7389516 2.996093,2.7441406 l 1.597657,4.992188 c -0.761807,0.553333 -1.265625,1.444849 -1.265625,2.451172 0,1.666476 1.366727,3.033203 3.033203,3.033203 1.666476,0 3.033203,-1.366727 3.033203,-3.033203 0,-1.6144 -1.285619,-2.937675 -2.88086,-3.019532 l -1.632812,-5.09375 c 0.698674,-0.5572562 1.158203,-1.4048886 1.158203,-2.361328 0,-1.666476 -1.366727,-3.0351562 -3.033203,-3.0351562 -1.055811,0 -1.988796,0.5505202 -2.533203,1.3769531 L 11.025391,5.1708983 C 10.816342,3.703311 9.5554754,2.5595702 8.033203,2.5595702 Z m 0,1.5371094 c 0.8361004,0 1.4980469,0.6599933 1.4980469,1.4960937 0,0.8361004 -0.6619465,1.4980469 -1.4980469,1.4980469 -0.8361004,0 -1.4960937,-0.6619465 -1.4960937,-1.4980469 0,-0.8361004 0.6599933,-1.4960937 1.4960937,-1.4960937 z m 9.560547,2.3378906 c 0.8361,0 1.496094,0.6619466 1.496094,1.4980468 0,0.8361006 -0.659994,1.4960938 -1.496094,1.4960938 -0.8361,0 -1.498047,-0.6599932 -1.498047,-1.4960938 0,-0.8361002 0.661947,-1.4980468 1.498047,-1.4980468 z M 3.0507811,14.163086 c 0.8361006,0 1.4980469,0.661946 1.4980469,1.498047 0,0.8361 -0.6619463,1.498047 -1.4980469,1.498047 -0.8361003,0 -1.4980468,-0.661947 -1.4980468,-1.498047 0,-0.836101 0.6619465,-1.498047 1.4980468,-1.498047 z M 20.949219,16.90918 c 0.8361,0 1.498047,0.661946 1.498047,1.498047 0,0.8361 -0.661947,1.496093 -1.498047,1.496093 -0.836101,0 -1.498047,-0.659993 -1.498047,-1.496093 0,-0.836101 0.661946,-1.498047 1.498047,-1.498047 z"
       style="color:#000000;font-style:normal;font-variant:normal;font-weight:normal;font-stretch:normal;font-size:medium;line-height:normal;font-family:sans-serif;font-variant-ligatures:normal;font-variant-position:normal;font-variant-caps:normal;font-variant-numeric:normal;font-variant-alternates:normal;font-variant-east-asian:normal;font-feature-settings:normal;font-variation-settings:normal;text-indent:0;text-align:start;text-decoration:none;text-decoration-line:none;text-decoration-style:solid;text-decoration-color:#000000;letter-spacing:normal;word-spacing:normal;text-transform:none;writing-mode:lr-tb;direction:ltr;text-orientation:mixed;dominant-baseline:auto;baseline-shift:baseline;text-anchor:start;white-space:normal;shape-padding:0;shape-margin:0;inline-size:0;clip-rule:nonzero;display:inline;overflow:visible;visibility:visible;isolation:auto;mix-blend-mode:normal;color-interpolation:sRGB;color-interpolation-filters:linearRGB;solid-color:#000000;solid-opacity:1;vector-effect:none;fill:#000000;fill-opacity:1;fill-rule:nonzero;stroke:none;stroke-width:1.91836;stroke-linecap:butt;stroke-linejoin:round;stroke-miterlimit:4;stroke-dasharray:none;stroke-dashoffset:0;stroke-opacity:1;color-rendering:auto;image-rendering:auto;shape-rendering:auto;text-rendering:auto;enable-background:accumulate;stop-color:#000000;stop-opacity:1;opacity:1"
       id="path840" />
  </g>
</svg>
